<svg width="412" height="206" viewBox="0 0 412 206" fill="none" xmlns="http://www.w3.org/2000/svg">
<path d="M65.358 135.572L88.0505 107.279C88.1045 107.212 88.1383 107.131 88.1482 107.045C88.158 106.96 88.1434 106.873 88.1061 106.795C88.0688 106.718 88.0102 106.652 87.9371 106.606C87.8641 106.56 87.7796 106.536 87.6933 106.536H70.4397C70.3709 106.536 70.3031 106.552 70.2411 106.581C70.1792 106.611 70.1248 106.655 70.0819 106.708L44.4804 138.762C44.4212 138.836 44.3404 138.89 44.2493 138.916C44.1581 138.943 44.061 138.94 43.9714 138.909C43.8819 138.877 43.8043 138.819 43.7494 138.742C43.6945 138.664 43.665 138.572 43.665 138.477V83.2702C43.665 83.149 43.6167 83.0328 43.5309 82.9471C43.4451 82.8614 43.3287 82.8132 43.2073 82.8132H26.4576C26.3362 82.8132 26.2199 82.8614 26.134 82.9471C26.0482 83.0328 26 83.149 26 83.2702V174.981C26 175.103 26.0482 175.219 26.134 175.304C26.2199 175.39 26.3362 175.438 26.4576 175.438H43.2077C43.329 175.438 43.4454 175.39 43.5313 175.304C43.6171 175.219 43.6653 175.103 43.6654 174.981V143.669C43.6654 143.548 43.7136 143.432 43.7994 143.346C43.8852 143.26 44.0016 143.212 44.123 143.212H50.9327C51.0055 143.212 51.0771 143.23 51.1418 143.263C51.2065 143.296 51.2624 143.344 51.3047 143.403L74.152 175.247C74.1944 175.306 74.2502 175.354 74.3149 175.388C74.3796 175.421 74.4513 175.438 74.524 175.438H93.3352C93.4198 175.438 93.5027 175.415 93.5748 175.371C93.6469 175.326 93.7053 175.263 93.7435 175.188C93.7817 175.112 93.7983 175.028 93.7913 174.944C93.7844 174.86 93.7542 174.779 93.7042 174.711L65.3458 136.128C65.2863 136.047 65.2552 135.948 65.2575 135.848C65.2597 135.747 65.295 135.65 65.358 135.572Z" fill="#DC0019"/>
<path d="M249.914 83.2702V174.981C249.914 175.103 249.962 175.219 250.048 175.304C250.133 175.39 250.25 175.438 250.371 175.438H267.11C267.231 175.438 267.347 175.39 267.433 175.304C267.519 175.219 267.567 175.103 267.567 174.981V83.2702C267.567 83.149 267.519 83.0328 267.433 82.9471C267.347 82.8614 267.231 82.8132 267.11 82.8132H250.371C250.25 82.8132 250.133 82.8614 250.048 82.9471C249.962 83.0328 249.914 83.149 249.914 83.2702Z" fill="#DC0019"/>
<path d="M304.445 83.2735L304.315 101.548C304.315 101.608 304.326 101.668 304.349 101.724C304.372 101.78 304.406 101.831 304.448 101.873C304.491 101.916 304.541 101.95 304.597 101.973C304.653 101.996 304.712 102.008 304.773 102.008H315.494C315.616 102.008 315.732 102.057 315.818 102.142C315.904 102.228 315.952 102.344 315.952 102.465V115.63H304.77C304.71 115.63 304.65 115.642 304.594 115.665C304.539 115.688 304.488 115.721 304.446 115.764C304.403 115.806 304.37 115.857 304.347 115.912C304.324 115.968 304.312 116.027 304.312 116.087V148.469C304.312 155.54 308.382 159.547 315.577 159.547H321.974C322.095 159.547 322.212 159.596 322.298 159.681C322.383 159.767 322.432 159.883 322.432 160.004V174.982C322.432 175.103 322.383 175.219 322.298 175.305C322.212 175.391 322.095 175.439 321.974 175.439H316.521C296.185 175.439 286.704 168.492 286.704 147.266L286.633 122.672C286.531 119.108 292.089 115.619 292.089 115.619L275.499 115.63C275.439 115.63 275.379 115.618 275.324 115.595C275.268 115.572 275.218 115.539 275.175 115.496C275.133 115.454 275.099 115.403 275.076 115.348C275.053 115.293 275.041 115.233 275.041 115.173V102.465C275.041 102.405 275.053 102.346 275.076 102.29C275.099 102.235 275.133 102.184 275.175 102.142C275.218 102.099 275.268 102.066 275.324 102.043C275.379 102.02 275.439 102.008 275.499 102.008H286.249C286.37 102.008 286.486 101.96 286.572 101.875C286.657 101.79 286.706 101.675 286.707 101.554L286.837 83.267C286.838 83.1463 286.886 83.0309 286.972 82.9459C287.058 82.8609 287.174 82.8132 287.294 82.8132H303.988C304.048 82.8132 304.108 82.8252 304.163 82.8484C304.219 82.8715 304.27 82.9055 304.312 82.9483C304.355 82.9911 304.388 83.0418 304.411 83.0976C304.434 83.1534 304.445 83.2132 304.445 83.2735Z" fill="#DC0019"/>
<path d="M349.008 106.414H332.263C332.01 106.414 331.805 106.618 331.805 106.871V174.926C331.805 175.179 332.01 175.383 332.263 175.383H349.008C349.261 175.383 349.466 175.179 349.466 174.926V106.871C349.466 106.618 349.261 106.414 349.008 106.414Z" fill="#DC0019"/>
<path d="M138.786 106.571H138.036C127.636 106.571 120.792 111.374 117.1 120.195C117.076 120.253 117.063 120.315 117.063 120.378V83.2703C117.063 83.1491 117.015 83.0328 116.929 82.9471C116.843 82.8614 116.727 82.8133 116.606 82.8132H99.8561C99.7959 82.8132 99.7364 82.825 99.6809 82.848C99.6254 82.871 99.5749 82.9046 99.5324 82.9471C99.4899 82.9895 99.4562 83.0399 99.4332 83.0954C99.4102 83.1508 99.3984 83.2103 99.3984 83.2703V174.981C99.3984 175.041 99.4102 175.101 99.4332 175.156C99.4562 175.212 99.4899 175.262 99.5324 175.304C99.5749 175.347 99.6254 175.381 99.6809 175.404C99.7364 175.427 99.7959 175.438 99.8561 175.438H116.606C116.727 175.438 116.844 175.39 116.929 175.304C117.015 175.219 117.063 175.102 117.063 174.981V137.798C117.063 128.661 122.781 122.44 131.546 122.44C139.684 122.44 145.141 127.888 145.141 136.651V174.981C145.141 175.041 145.153 175.101 145.176 175.156C145.199 175.212 145.233 175.262 145.275 175.304C145.318 175.347 145.368 175.381 145.424 175.404C145.479 175.426 145.539 175.438 145.599 175.438H162.337C162.397 175.438 162.457 175.426 162.512 175.403C162.568 175.381 162.618 175.347 162.661 175.304C162.703 175.262 162.737 175.212 162.76 175.156C162.783 175.101 162.795 175.041 162.795 174.981V138.297C162.794 117.74 154.542 106.571 138.786 106.571Z" fill="#DC0019"/>
<path d="M319.064 102H316.399C316.146 102 315.941 102.205 315.941 102.457V115.157C315.941 115.409 316.146 115.614 316.399 115.614H319.064C319.317 115.614 319.522 115.409 319.522 115.157V102.457C319.522 102.205 319.317 102 319.064 102Z" fill="#DC0019"/>
<path d="M222.374 106.869V117.037C219.937 113.85 216.813 111.251 213.235 109.431C209.114 107.347 204.542 106.31 199.924 106.412C194.35 106.305 188.861 107.779 184.092 110.662C179.324 113.546 175.472 117.72 172.983 122.701C170.165 128.262 168.756 134.427 168.879 140.658C168.752 146.951 170.16 153.181 172.983 158.809C175.515 163.833 179.38 168.065 184.157 171.045C188.858 173.933 194.28 175.436 199.799 175.381C204.463 175.476 209.078 174.419 213.235 172.305C216.859 170.483 219.993 167.82 222.374 164.541V174.924C222.374 175.045 222.423 175.161 222.509 175.247C222.594 175.333 222.711 175.381 222.832 175.381H239.571C239.692 175.381 239.808 175.333 239.894 175.247C239.98 175.161 240.028 175.045 240.028 174.924V106.869C240.028 106.748 239.98 106.631 239.894 106.546C239.808 106.46 239.692 106.412 239.571 106.412H222.832C222.711 106.412 222.594 106.46 222.509 106.546C222.423 106.631 222.374 106.748 222.374 106.869ZM219.919 151.453C218.394 154.282 216.096 156.62 213.292 158.196C210.568 159.751 207.483 160.565 204.346 160.557C201.255 160.559 198.222 159.724 195.57 158.139C192.763 156.482 190.469 154.082 188.943 151.204C187.207 147.965 186.341 144.331 186.431 140.658C186.332 137.025 187.199 133.429 188.943 130.238C190.475 127.445 192.748 125.128 195.513 123.541C198.204 122.014 201.251 121.223 204.346 121.248C207.483 121.241 210.568 122.055 213.292 123.609C216.096 125.185 218.394 127.523 219.919 130.352C221.633 133.602 222.479 137.238 222.374 140.909C222.478 144.576 221.632 148.208 219.919 151.453Z" fill="#DC0019"/>
<path d="M386.153 37.4257C385.903 38.1138 385.659 38.7958 385.408 39.4778C384.763 41.2606 384.111 43.0438 383.466 44.8205C382.551 47.3168 381.64 49.813 380.734 52.3092C379.707 55.137 378.677 57.9648 377.645 60.7926C376.63 63.5766 375.618 66.3605 374.607 69.1445C373.748 71.4969 372.89 73.8492 372.032 76.2015C371.468 77.7468 370.904 79.2983 370.346 80.8435C370.196 81.2628 370.046 81.6756 369.908 82.0948C369.888 82.1396 369.872 82.1856 369.858 82.2324C369.037 84.5909 368.304 86.9682 367.333 89.2955C367.034 89.958 366.714 90.6114 366.358 91.2451C366.092 91.7239 365.799 92.1871 365.481 92.6325C365.249 92.9576 364.994 93.265 364.716 93.5521C364.522 93.7542 364.309 93.9372 364.08 94.0986C363.98 94.18 363.865 94.2396 363.741 94.2734C363.617 94.3072 363.488 94.3145 363.361 94.2948C363.005 94.2123 363.083 93.7699 363.088 93.5031C363.094 93.1157 363.094 92.7283 363.086 92.3409C363.07 91.5668 363.024 90.7942 362.948 90.0231C362.872 89.2535 362.765 88.4879 362.628 87.7261C362.49 86.9657 362.321 86.2118 362.12 85.4645C361.919 84.7172 361.685 83.9799 361.418 83.2526C361.347 83.0597 361.274 82.8677 361.199 82.6765C359.936 79.4113 357.965 76.4653 355.429 74.0493C355.412 74.0308 355.393 74.014 355.372 73.9991C355.35 73.9816 355.33 73.9628 355.31 73.9429C355.301 73.9375 355.293 73.9314 355.285 73.9246C353.347 72.161 351.162 70.688 348.8 69.5515C348.456 69.3826 348.105 69.22 347.748 69.0636C347.691 69.0404 347.64 69.0062 347.597 68.9631C347.553 68.9199 347.519 68.8687 347.496 68.8123C347.472 68.7558 347.461 68.6954 347.461 68.6344C347.461 68.5733 347.473 68.5129 347.497 68.4567C352.24 57.4645 369.162 48.2054 369.688 47.9176C359.063 51.6087 345.805 63.264 341.915 66.7488C341.822 66.8308 341.711 66.8886 341.591 66.917C341.471 66.9453 341.345 66.9434 341.226 66.9113C340.179 66.636 339.127 66.3734 338.087 66.0981C333.626 64.9469 328.614 63.5581 325.105 60.4174C324.323 59.8152 323.699 59.0315 323.289 58.1343C322.878 57.2371 322.693 56.2534 322.75 55.2686C323.263 50.176 329.441 48.6558 333.451 47.2982C334.447 46.9603 335.437 46.6162 336.433 46.2784C336.44 46.2719 336.448 46.2675 336.458 46.2659C337.504 45.9094 338.544 45.5465 339.591 45.1899C341.777 44.4391 343.966 43.6863 346.157 42.9314C348.475 42.1306 350.795 41.3319 353.117 40.5352C355.448 39.7345 357.774 38.9337 360.097 38.1328C362.295 37.3759 364.492 36.6189 366.688 35.8619C368.624 35.1988 370.562 34.5335 372.502 33.8663C374.67 33.1154 376.862 32.4273 379.011 31.6202C379.764 31.3237 380.548 31.1138 381.348 30.9946C382.523 30.7946 383.731 31.0304 384.744 31.6578C386.542 32.8461 386.855 35.5113 386.153 37.4257Z" fill="#DC0019"/>
<path d="M340.638 98.1755C345.936 98.1755 350.232 93.8864 350.232 88.5955C350.232 83.3046 345.936 79.0154 340.638 79.0154C335.339 79.0154 331.044 83.3046 331.044 88.5955C331.044 93.8864 335.339 98.1755 340.638 98.1755Z" fill="#DC0019"/>
</svg>
