<svg height="47" viewBox="0 0 49 47" width="50" xmlns="http://www.w3.org/2000/svg"><g fill="#fff"><path d="m42.792969 4.546875c-.371094-.464844-.886719-.707031-1.460938-.6875h-33.03125c-.574219-.019531-1.089843.242187-1.460937.6875-.390625.445313-.554688 1.074219-.464844 1.683594l2.371094 24.804687c.148437 1.457032 1.238281 3.28125 2.367187 4.050782l11.675781 7.539062c1.316407.75 2.851563.75 4.144532 0l11.675781-7.539062c1.167969-.6875 2.203125-2.59375 2.371094-4.050782l2.367187-24.804687c-.019531-.589844-.183594-1.21875-.554687-1.683594zm-9.566407 27.480469c-.960937.6875-2.257812.425781-2.886718-.609375l-5.976563-9.585938-3.609375 3.972657v4.355468c0 1.238282-.941406 2.273438-2.070312 2.273438s-2.074219-1.015625-2.074219-2.273438v-18.925781c0-1.234375.945313-2.269531 2.074219-2.269531s2.070312 1.011718 2.070312 2.269531v8.148437l8.902344-9.75c.8125-.890624 2.144531-.890624 2.941406 0 .796875.890626.8125 2.351563 0 3.222657l-5.253906 5.714843c.015625.019532.015625.039063.035156.0625l6.382813 10.210938c.648437 1.074219.40625 2.472656-.535157 3.183594zm0 0"/><path d="m4.5625 10.445312-3.886719.527344 1.445313 12.746094 3.699218-.46875zm0 0"/></g></svg>