<?xml version="1.0" encoding="UTF-8"?>
<svg xmlns="http://www.w3.org/2000/svg" xmlns:xlink="http://www.w3.org/1999/xlink" width="50px" height="47px" viewBox="0 0 49 47" version="1.1">
<g id="surface1">
<path style=" stroke:none;fill-rule:nonzero;fill:#fff;fill-opacity:1;" d="M 42.792969 4.546875 C 42.421875 4.082031 41.90625 3.839844 41.332031 3.859375 L 8.300781 3.859375 C 7.726562 3.839844 7.210938 4.101562 6.839844 4.546875 C 6.449219 4.992188 6.285156 5.621094 6.375 6.230469 L 8.746094 31.035156 C 8.894531 32.492188 9.984375 34.316406 11.113281 35.085938 L 22.789062 42.625 C 24.105469 43.375 25.640625 43.375 26.933594 42.625 L 38.609375 35.085938 C 39.777344 34.398438 40.8125 32.492188 40.980469 31.035156 L 43.347656 6.230469 C 43.328125 5.640625 43.164062 5.011719 42.792969 4.546875 Z M 33.226562 32.027344 C 32.265625 32.714844 30.96875 32.453125 30.339844 31.417969 L 24.363281 21.832031 L 20.753906 25.804688 L 20.753906 30.160156 C 20.753906 31.398438 19.8125 32.433594 18.683594 32.433594 C 17.554688 32.433594 16.609375 31.417969 16.609375 30.160156 L 16.609375 11.234375 C 16.609375 10 17.554688 8.964844 18.683594 8.964844 C 19.8125 8.964844 20.753906 9.976562 20.753906 11.234375 L 20.753906 19.382812 L 29.65625 9.632812 C 30.46875 8.742188 31.800781 8.742188 32.597656 9.632812 C 33.394531 10.523438 33.410156 11.984375 32.597656 12.855469 L 27.34375 18.570312 C 27.359375 18.589844 27.359375 18.609375 27.378906 18.632812 L 33.761719 28.84375 C 34.410156 29.917969 34.167969 31.316406 33.226562 32.027344 Z M 33.226562 32.027344 "/>
<path style=" stroke:none;fill-rule:nonzero;fill:#fff;fill-opacity:1;" d="M 4.5625 10.445312 L 0.675781 10.972656 L 2.121094 23.71875 L 5.820312 23.25 Z M 4.5625 10.445312 "/>
</g>
</svg>
